<?xml version="1.0" encoding="utf-8"?>
<!-- Generator: Adobe Illustrator 24.1.2, SVG Export Plug-In . SVG Version: 6.00 Build 0)  -->
<svg version="1.1" id="Layer_1" xmlns="http://www.w3.org/2000/svg" xmlns:xlink="http://www.w3.org/1999/xlink" x="0px" y="0px"
	 viewBox="0 0 512 512" style="enable-background:new 0 0 512 512;" xml:space="preserve">
<style type="text/css">
	.st0{fill:#FFFFFF;}
	.st1{fill:#241C36;}
	.st2{fill:#B5A7C6;}
	.st3{fill:#9C8DB2;}
	.st4{fill:#E0D3E3;}
	.st5{fill:#8B7DA0;}
	.st6{opacity:0.5;fill:#E0D3E3;}
</style>
<g>
	<path class="st1" d="M116.45,423.73c-4.63,0-8.29,3.66-8.29,8.29v22.18H77.57v-22.18c0-4.63-3.66-8.29-8.29-8.29
		c-4.63,0-8.29,3.66-8.29,8.29v60.09c0,4.63,3.66,8.29,8.29,8.29c4.63,0,8.29-3.66,8.29-8.29V469.5h30.58v22.61
		c0,4.63,3.66,8.29,8.29,8.29s8.29-3.66,8.29-8.29v-60.09C124.74,427.39,121.08,423.73,116.45,423.73z"/>
	<path class="st1" d="M183.96,423.09c-23.26,0-40.17,17.55-40.17,38.98v0.22c0,21.43,16.69,38.77,39.95,38.77
		s40.17-17.55,40.17-38.98v-0.22C223.91,440.42,207.22,423.09,183.96,423.09z M206.58,462.28c0,12.92-9.26,23.47-22.61,23.47
		s-22.83-10.77-22.83-23.69v-0.22c0-12.92,9.26-23.47,22.61-23.47s22.83,10.77,22.83,23.69V462.28z"/>
	<path class="st1" d="M273.02,454.64c-13.03-3.34-16.26-4.95-16.26-9.91v-0.22c0-3.66,3.34-6.57,9.69-6.57
		c5.17,0,10.34,1.83,15.83,5.06c1.29,0.75,2.58,1.18,4.2,1.18c4.31,0,7.75-3.34,7.75-7.65c0-3.23-1.83-5.49-3.66-6.57
		c-6.78-4.31-14.75-6.68-23.91-6.68c-15.4,0-26.38,9.05-26.38,22.72v0.22c0,14.97,9.8,19.17,24.98,23.04
		c12.6,3.23,15.18,5.38,15.18,9.58v0.22c0,4.42-4.09,7.11-10.88,7.11c-7.32,0-13.57-2.58-19.28-6.78c-1.08-0.75-2.58-1.51-4.74-1.51
		c-4.31,0-7.75,3.34-7.75,7.65c0,2.58,1.29,4.95,3.12,6.25c8.4,6.03,18.41,9.05,28.32,9.05c16.26,0,27.67-8.4,27.67-23.37v-0.22
		C296.92,464.11,288.31,458.62,273.02,454.64z"/>
	<path class="st1" d="M364.12,424.38h-48.46c-4.2,0-7.65,3.45-7.65,7.65c0,4.2,3.45,7.65,7.65,7.65h15.94v52.44
		c0,4.63,3.66,8.29,8.29,8.29c4.63,0,8.29-3.66,8.29-8.29v-52.44h15.94c4.2,0,7.65-3.45,7.65-7.65
		C371.76,427.83,368.32,424.38,364.12,424.38z"/>
	<path class="st1" d="M422.59,424.38h-26.17c-4.63,0-8.29,3.66-8.29,8.29v59.44c0,4.63,3.66,8.29,8.29,8.29
		c4.63,0,8.29-3.66,8.29-8.29v-16.48h13.25l16.15,20.46c1.94,2.48,4.42,4.31,8.18,4.31c3.98,0,7.86-3.02,7.86-7.65
		c0-2.58-1.08-4.31-2.69-6.35l-11.52-14c9.15-3.77,15.08-11.09,15.08-22.94v-0.22c0-7.11-2.26-13.03-6.46-17.23
		C439.6,427.07,432.17,424.38,422.59,424.38z M434.22,450.33c0,6.35-4.63,10.66-12.71,10.66h-16.8v-21.64h16.48
		c8.08,0,13.03,3.66,13.03,10.77V450.33z"/>
	<path class="st1" d="M102.45,84.59l-8,3.49c-1.36,0.6-1.98,2.18-1.39,3.53c0.44,1.01,1.43,1.61,2.46,1.61
		c0.36,0,0.72-0.07,1.07-0.22l8-3.49c1.36-0.59,1.98-2.17,1.39-3.53C105.39,84.61,103.81,83.99,102.45,84.59z"/>
	<path class="st2" d="M246.03,331.37c-1.69,5.03-5.7,14.68-14.96,23.21c-3.62,3.33-14.84,13.36-32.16,14.22
		c-24.02,1.19-39.08-16.28-40.13-17.55c-9.63-11.56-11-24.31-11.26-29.1l-0.07-0.33c-0.62-1.37-1.21-2.84-1.75-4.37
		c-14.01-39.56,13.81-93.25,29.74-123.24c15.7-29.54,26.17-40.97,36.34-72.59c4.97-15.49,7.56-28.68,8.97-37.4l-0.02-1.42
		c0-0.67-0.08-1.36-0.11-2.04c-0.22-2.72-0.61-5.46-1.28-8.17l-0.22-1.02l-0.28-1c-0.19-0.67-0.36-1.35-0.57-2.02
		c-0.44-1.33-0.84-2.67-1.36-3.98c-3.94-10.53-10.52-20.15-18.91-27.56c-0.55-0.48-1.11-0.95-1.67-1.42
		c-0.17-0.14-0.34-0.27-0.51-0.41c-0.41-0.33-0.82-0.65-1.23-0.97c-0.16-0.13-0.33-0.25-0.5-0.37c-0.44-0.33-0.88-0.65-1.33-0.97
		c-0.13-0.09-0.26-0.18-0.39-0.27c-0.51-0.35-1.02-0.7-1.53-1.03c-0.03-0.02-0.06-0.04-0.08-0.06v-0.01
		c-0.22-0.14-0.45-0.28-0.68-0.42c-0.23-0.15-0.46-0.29-0.7-0.44c-0.36-0.22-0.72-0.43-1.08-0.64c-0.22-0.13-0.44-0.26-0.66-0.39
		c-0.4-0.23-0.81-0.45-1.22-0.67c-0.18-0.1-0.36-0.2-0.55-0.3c-0.49-0.26-0.99-0.51-1.5-0.76c-0.1-0.05-0.2-0.1-0.3-0.15
		c-0.07-0.03-0.14-0.07-0.21-0.1c-0.01,0-0.02,0-0.02,0c-11.73-2.92-32.6-5.61-51.77,5.14c-13.63,7.65-22.32,19.79-24.94,23.53
		c-6.18,8.82-9.56,17.23-11.45,23.17c0,0-29.89,13.2-40.28,16.68c-10.38,3.49-8.01,9.46-8.01,9.46v0.01
		c-1.13,0.05-2.26,0.1-3.39,0.16c0.02,0.03,0.03,0.05,0.04,0.08c1.75-0.08,3.51-0.17,5.26-0.25c4.22-0.2,8.44-0.37,12.66-0.53
		c0.63-0.02,1.26-0.05,1.89-0.07c4.04-0.15,8.08-0.29,12.12-0.4c11.74-0.37,23.49-0.62,35.24-0.83c5.87-0.12,11.74-0.16,17.62-0.25
		c2.96-0.05,5.82-0.02,8.7-0.01c1.45,0.03,2.84-0.05,4.26-0.11l2.12-0.09l1.06-0.03l1.05-0.09l4.21-0.34l4.15-0.57
		c1.38-0.2,2.72-0.5,4.09-0.74c1.36-0.27,2.67-0.65,4.01-0.97c2.59-0.79,5.22-1.59,7.55-2.78c1.18-0.58,2.3-1.23,3.34-1.93
		c0.26-0.17,0.5-0.36,0.75-0.54c0.25-0.18,0.49-0.36,0.71-0.55c0.22-0.19,0.45-0.38,0.62-0.56c0.09-0.09,0.21-0.2,0.27-0.26
		c0.06-0.06,0.18-0.21,0.13-0.11c0.93-1.53,2.93-2.02,4.46-1.09c1.53,0.93,2.02,2.93,1.09,4.46c-0.25,0.41-0.35,0.54-0.52,0.77
		c-0.15,0.24-0.29,0.39-0.44,0.58c-0.29,0.38-0.6,0.71-0.9,1.02c-0.3,0.34-0.61,0.64-0.92,0.93c-0.31,0.29-0.63,0.6-0.95,0.87
		c-1.3,1.07-2.64,2.02-4.03,2.87c-2.77,1.74-5.68,2.96-8.61,4.12c-5.91,2.11-11.98,3.43-18.03,4.18c-1.52,0.25-3.03,0.32-4.54,0.48
		c-1.52,0.14-3.04,0.3-4.53,0.34l-8.9,0.44c-2.82,0.13-5.63,0.28-8.45,0.41c1.24,1.87,2.55,3.41,3.8,4.67
		c15.2,15.31,41.11,9.18,44.31,8.38c1.36-0.7,3.03-0.16,3.72,1.2c0.6,1.17,0.28,2.57-0.69,3.38c0,0,0,0-0.01,0.01
		c-0.25,0.32-8.42,10.71-23.26,13.86c0,0-6.64,22.99-18.91,44.19c-12.18,21.05-82.51,137.4-8.77,211.55h93.58
		C241.24,382.85,246.03,331.37,246.03,331.37z M104.59,89.5l-8,3.49c-0.35,0.15-0.71,0.22-1.07,0.22c-1.03,0-2.02-0.6-2.46-1.61
		c-0.59-1.36,0.03-2.94,1.39-3.53l8-3.49c1.36-0.6,2.94,0.02,3.53,1.39C106.57,87.33,105.95,88.91,104.59,89.5z M169.26,87.13
		c-8.09,0-14.65-6.56-14.65-14.65c0-4.49,2.02-8.5,5.2-11.19c-1.89,1.24-3.55,2.85-4.81,4.77c-2.43,3.78-3.69,8.23-3.86,13.45v0.02
		c-0.02,0.38-0.34,0.68-0.72,0.67c-0.24-0.01-0.45-0.15-0.57-0.34c-2.92-4.86-2.51-11.55,0.54-16.64c1.49-2.57,3.53-4.84,5.93-6.62
		c2.4-1.8,5.23-3.05,8.17-3.71c5.89-1.36,12.36-0.04,17.29,3.47c4.98,3.45,8.31,9.11,8.95,15.04c0.16,1.47-0.9,2.8-2.38,2.96
		c-1.37,0.15-2.62-0.77-2.9-2.09l-0.02-0.07c-0.68-3.16-2.22-6.07-4.39-8.38c1.79,2.43,2.86,5.41,2.86,8.66
		C183.9,80.57,177.35,87.13,169.26,87.13z"/>
	<path class="st1" d="M168.15,57.88c-2.54,0.2-4.89,1.11-6.83,2.52c-3.4,2.46-5.61,6.46-5.61,10.97c0,7.48,6.06,13.54,13.54,13.54
		s13.54-6.06,13.54-13.54c0-3.68-1.47-7.01-3.85-9.45c-0.01-0.01-0.02-0.01-0.02-0.02c-1.31-1.35-2.9-2.42-4.68-3.13c0,0,0,0-0.01,0
		c1.57,0.95,2.62,2.67,2.62,4.64c0,3-2.43,5.43-5.43,5.43c-3,0-5.43-2.43-5.43-5.43c0-2.97,2.38-5.38,5.34-5.42c0,0,0,0,0,0
		c-0.68-0.11-1.37-0.16-2.08-0.16c0.73,0,1.43,0.06,2.13,0.16c0.01,0,0.03,0,0.04,0c0.88,0,1.71,0.21,2.44,0.58
		c0.26,0.09,0.53,0.18,0.78,0.29c1.92,0.76,3.65,1.92,5.06,3.38c0,0.01,0.01,0.01,0.02,0.02c0.47,0.48,0.9,1.01,1.31,1.56
		c2.17,2.3,3.71,5.22,4.39,8.38l0.02,0.07c0.28,1.32,1.53,2.24,2.9,2.09c1.48-0.16,2.54-1.49,2.38-2.96
		c-0.64-5.92-3.97-11.59-8.95-15.04c-4.93-3.51-11.4-4.83-17.29-3.47c-2.94,0.66-5.77,1.91-8.17,3.71
		c-2.41,1.79-4.44,4.05-5.93,6.62c-3.04,5.09-3.46,11.78-0.54,16.64c0.11,0.19,0.33,0.33,0.57,0.34c0.38,0.02,0.71-0.28,0.72-0.67
		v-0.02c0.18-5.22,1.43-9.67,3.86-13.45c1.26-1.92,2.92-3.53,4.81-4.77c0.28-0.24,0.57-0.47,0.86-0.68
		C162.8,59.07,165.37,58.09,168.15,57.88z"/>
	<path class="st3" d="M211.79,121.62c-10.17,31.63-20.64,43.05-36.34,72.59c-15.93,29.99-43.75,83.68-29.74,123.24
		c0.54,1.53,1.13,3,1.75,4.37c0,0,0,0,0,0.01c0,0,0,0.01,0.01,0.01l-0.27-1.27l-0.25-1.23c-0.08-0.41-0.12-0.83-0.18-1.24
		l-0.34-2.48c-0.15-1.62-0.23-3.2-0.34-4.79c-0.3-3.19-0.18-6.36-0.19-9.53c-0.04-1.59,0.12-3.16,0.21-4.74l0.31-4.74l0.57-4.68
		l0.29-2.34l0.15-1.17l0.21-1.16c1.03-6.18,2.31-12.31,3.95-18.32c3.22-12.03,7.48-23.69,12.35-35.02
		c4.87-11.33,10.36-22.35,16.25-33.11l4.49-8.02l4.64-7.94l4.54-7.78c1.51-2.6,2.94-5.23,4.4-7.83
		c5.76-10.48,10.97-21.19,14.94-32.21c1.94-5.51,3.59-11.09,4.77-16.77c1.15-5.68,1.88-11.45,2.29-17.31
		c0.23-2.93,0.33-5.89,0.44-8.87l0.1-4.47l-0.01-0.61C219.35,92.94,216.76,106.13,211.79,121.62z"/>
	<path class="st4" d="M47.4,105.63L47.4,105.63c0-0.01-2.38-5.98,8.01-9.47c10.39-3.49,40.28-16.68,40.28-16.68
		c1.89-5.94,5.26-14.35,11.45-23.17c2.62-3.74,11.3-15.88,24.94-23.53c19.17-10.75,40.04-8.06,51.77-5.14
		c-0.03-0.01-0.05-0.02-0.08-0.04c-0.58-0.28-1.17-0.55-1.76-0.81c-0.1-0.04-0.19-0.08-0.29-0.12c-0.53-0.23-1.06-0.45-1.59-0.67
		c-0.14-0.06-0.29-0.11-0.44-0.17c-0.49-0.19-0.98-0.38-1.48-0.56c-0.18-0.06-0.35-0.12-0.53-0.18c-0.47-0.16-0.94-0.33-1.42-0.48
		c-0.19-0.06-0.39-0.12-0.58-0.18c-0.46-0.14-0.92-0.29-1.39-0.42c-0.2-0.06-0.41-0.11-0.62-0.16c-0.46-0.12-0.92-0.25-1.38-0.36
		c-0.22-0.05-0.45-0.1-0.67-0.15c-0.45-0.1-0.89-0.21-1.34-0.3c-0.67-0.14-1.35-0.27-2.03-0.38c-5.5-0.97-11.16-1.19-16.8-0.77
		c-5.65,0.42-11.21,1.46-16.5,3.23c-5.29,1.77-10.32,4.21-14.89,7.39c-4.54,3.19-8.72,6.95-12.29,11.29
		c-1.82,2.14-3.47,4.43-5.02,6.8c-1.55,2.36-2.95,4.83-4.22,7.37c-1.28,2.54-2.42,5.14-3.42,7.8c-0.51,1.33-0.96,2.67-1.38,4.01
		c-0.21,0.67-0.41,1.34-0.59,2.01l-0.26,0.98l-0.21,0.87l-0.04,0.16c-0.43,1.83-1.79,3.23-3.43,3.83
		c-5.46,1.95-10.94,3.98-16.38,6.05c-5.43,2.08-10.85,4.2-16.13,6.45c-1.32,0.57-2.64,1.13-3.91,1.72c-0.65,0.29-1.3,0.58-1.91,0.89
		l-0.93,0.45c-0.3,0.15-0.67,0.31-0.85,0.42c-1.77,0.92-3.26,2.33-4.25,3.96c-0.98,1.63-1.48,3.49-1.38,5.38
		c0.04,0.93,0.21,1.88,0.53,2.79c0.01,0.01,0.01,0.02,0.01,0.03C45.14,105.72,46.27,105.67,47.4,105.63z"/>
	<path class="st3" d="M124.36,118.94c-1.25-1.26-2.56-2.8-3.8-4.67c-3.04,0.15-6.08,0.3-9.13,0.42c-1.2,0.05-2.4,0.11-3.59,0.15
		c0.33,0.38,0.67,0.77,1.03,1.13c1.04,1.15,2.15,2.24,3.3,3.3c0.59,0.51,1.16,1.04,1.73,1.56l1.82,1.46
		c0.58,0.51,1.25,0.91,1.87,1.38c0.62,0.47,1.25,0.93,1.91,1.33l1.96,1.26l2.04,1.13l1.02,0.57l1.05,0.5l2.11,1.01
		c0.72,0.3,1.45,0.57,2.18,0.86c0.73,0.28,1.46,0.61,2.18,0.8c5.74,1.92,11.93,2.61,18.19,1.85c3.12-0.37,6.26-1,9.33-1.95
		l2.31-0.75c0.74-0.3,1.52-0.56,2.27-0.87c0.75-0.31,1.49-0.62,2.23-0.97c0.72-0.31,1.49-0.7,2.09-1l0.24-0.12
		C165.47,128.12,139.55,134.25,124.36,118.94z"/>
	<path class="st4" d="M129.53,189.94c12.26-21.2,18.91-44.19,18.91-44.19c14.84-3.14,23.01-13.53,23.26-13.86
		c-0.08,0.06-0.15,0.12-0.23,0.19c-0.71,0.59-1.34,1.08-2.04,1.59c-0.75,0.54-1.52,1.05-2.3,1.55c-0.77,0.51-1.58,0.94-2.38,1.42
		c-0.81,0.44-1.64,0.86-2.46,1.29c-3.33,1.61-6.87,2.88-10.54,3.74c-0.92,0.19-1.83,0.45-2.77,0.59c-0.93,0.15-1.88,0.28-2.82,0.41
		c-0.43,0.06-0.86,0.1-1.29,0.12c-3.22,17.87-12.67,35.41-23.5,55.52c-13.22,24.54-28.2,52.35-37.15,89.58
		c-6.74,28.02-3.74,55.87,8.91,82.77c7.54,16.03,16.46,26.93,19.91,30.84h7.72C47.02,327.35,117.35,211,129.53,189.94z"/>
	<path class="st3" d="M235.86,399.49c0.1-0.22,0.19-0.45,0.29-0.67c0.2-0.47,0.4-0.93,0.6-1.41c0.11-0.27,0.21-0.54,0.32-0.81
		c0.17-0.44,0.34-0.88,0.51-1.32c0.11-0.29,0.21-0.59,0.32-0.88c0.16-0.44,0.31-0.87,0.46-1.32c0.1-0.3,0.2-0.61,0.31-0.91
		c0.15-0.45,0.29-0.9,0.43-1.35c0.09-0.3,0.19-0.61,0.28-0.91c0.14-0.47,0.28-0.94,0.42-1.41c0.08-0.29,0.17-0.59,0.25-0.88
		c0.14-0.5,0.28-1.01,0.41-1.52c0.07-0.27,0.14-0.54,0.21-0.81c0.15-0.58,0.29-1.16,0.43-1.74c0.05-0.2,0.1-0.4,0.15-0.61
		c0.38-1.61,0.73-3.23,1.05-4.86c0.01-0.07,0.03-0.14,0.04-0.21c0.15-0.74,0.29-1.48,0.42-2.22c0.03-0.17,0.06-0.35,0.09-0.52
		c0.11-0.64,0.23-1.28,0.33-1.92c0.03-0.21,0.07-0.41,0.1-0.62c0.1-0.62,0.2-1.23,0.29-1.85c0.03-0.2,0.06-0.41,0.09-0.61
		c0.09-0.63,0.18-1.25,0.27-1.88c0.03-0.18,0.05-0.37,0.07-0.55c0.09-0.66,0.17-1.32,0.26-1.98c0.02-0.14,0.04-0.28,0.05-0.42
		c0.09-0.73,0.17-1.47,0.26-2.19c0.01-0.06,0.01-0.12,0.02-0.17c1.17-10.58,1.45-20.42,1.47-27.2c0-0.39,0-0.75,0-1.12
		c0-0.65-0.01-1.27-0.01-1.85c0-0.49-0.01-0.96-0.02-1.4c0,0-4.78,51.48-31.69,70.13h20.59
		C235.25,400.84,235.56,400.17,235.86,399.49z"/>
	<path class="st4" d="M158.78,351.26c1.05,1.26,16.11,18.74,40.13,17.55c17.32-0.86,28.53-10.89,32.16-14.22
		c9.26-8.53,13.27-18.19,14.96-23.21c-0.16,0.25-0.34,0.49-0.51,0.73c-0.28,0.39-0.57,0.78-0.87,1.17
		c-0.01,0.02-0.02,0.03-0.03,0.04c-0.77,1.03-1.55,2.04-2.34,3.04c-0.1,0.13-0.2,0.25-0.3,0.38c-0.77,0.96-1.55,1.91-2.34,2.84
		c-2.04,2.4-4.11,4.71-6.28,7c-1.12,1.2-2.39,2.32-3.59,3.48l-1.93,1.62c-0.65,0.53-1.29,1.07-1.99,1.55l-2.06,1.46
		c-0.69,0.49-1.44,0.89-2.16,1.34c-1.43,0.91-2.97,1.63-4.49,2.41c-0.76,0.38-1.56,0.67-2.34,1c-0.79,0.33-1.58,0.66-2.4,0.9
		l-2.44,0.79l-2.49,0.61c-3.34,0.74-6.76,1.19-10.18,1.16l-1.28,0.02l-1.28-0.07c-0.85-0.06-1.71-0.08-2.55-0.18l-2.54-0.34
		c-0.85-0.09-1.68-0.31-2.51-0.48c-0.84-0.16-1.67-0.34-2.48-0.58c-0.82-0.23-1.65-0.45-2.45-0.71c-1.6-0.57-3.22-1.1-4.76-1.82
		c-1.57-0.64-3.05-1.47-4.56-2.25c-1.44-0.89-2.92-1.72-4.28-2.73c-1.41-0.94-2.71-2.03-4.02-3.1c-0.64-0.55-1.25-1.14-1.88-1.72
		l-0.92-0.87l-0.87-0.92c-2.37-2.41-4.41-5.13-6.26-7.95l-1.33-2.16c-0.42-0.73-0.8-1.49-1.19-2.23l-0.59-1.12
		c-0.18-0.38-0.34-0.77-0.51-1.16l-1.02-2.31l-0.86-2.38l-0.42-1.19l-0.34-1.21l-0.68-2.43l-0.18-0.87
		C147.78,326.95,149.15,339.7,158.78,351.26z"/>
	<path class="st1" d="M386.5,353.6l-8.9-11.2l-4.56-5.68c-0.24-0.31-0.89-0.97-1-1.3c-0.13-0.39,0.01-1.36,0.01-1.79l0.05-6.57
		l0.01-19.09l-7.69,0.09l0.09,18.92l-0.24-0.24c-1.48-1.49-2.76-3.23-4.13-4.82l-1.19-1.41c-0.1-0.13-0.38-0.38-0.43-0.52
		c-0.08-0.23,0.01-0.93,0.01-1.21l0.02-3.96l-0.03-22.39l-17.75-0.02l-0.01,14.51l-32.69-11.56l43.34,52.11l-6.52-0.03
		c-0.85-1.38-2.08-2.67-3.11-3.94l-7.28-8.79l-20.21-24.52c-3.28-4.02-6.85-7.94-9.81-12.19l-49.96,60.9h12.17l-0.01,42.59h7.42
		l-0.03-54.7c0.03-0.68-0.07-1.65,0.09-2.29c0.11-0.46,5.72-6.85,6.43-7.71l14.36-17.24l9.45-11.59l11.97,14.51l8.16,9.88
		l8.44,10.17c0.27,0.33,1.19,1.24,1.3,1.58c0.1,0.34-0.01,1.11-0.01,1.48l-0.01,4.63l0.03,51.26h42.07l-0.03-47.98L386.5,353.6z"/>
	<polygon class="st1" points="296.72,349.04 296.7,358.94 306.18,358.92 306.18,349.04 	"/>
	<polygon class="st1" points="308.17,349.05 308.16,358.91 317.66,358.91 317.65,349.05 	"/>
	<polygon class="st1" points="306.15,347.36 306.18,337.06 296.72,337.03 296.73,347.4 	"/>
	<polygon class="st1" points="317.59,337.05 308.16,337.05 308.15,347.34 317.61,347.35 	"/>
	<path class="st1" d="M473.92,401.5h-3.56c-4.56-15.68-22.55-60.91-79.97-70.17c0,0,40.16-5.56,68.56,23.62
		c5.01,5.14,13.57,0.08,11.3-6.73c-4.53-13.49-13.3-28.89-30.22-40.47c-31.06-21.27-64.64-20.58-75.64-19.66
		c0.9,1.21,1.43,2.7,1.43,4.33l0.01,8.31c0,0,6.24-0.07,6.27-0.07c1.92,0,3.77,0.76,5.14,2.11c1.39,1.37,2.17,3.25,2.17,5.2
		l-0.01,19.09l-0.04,5.86l3.93,4.89l8.93,11.23c1.75,2.21,2.08,5.22,0.85,7.75c-1.23,2.51-3.78,4.11-6.57,4.11
		c-0.02,0-2.88-0.02-2.88-0.02l0.03,40.61h-7.31h-42.07h-60.17h-7.42h-7.31l0.01-35.28h-4.86c-2.83,0-5.4-1.63-6.61-4.18
		c-1.21-2.56-0.84-5.58,0.96-7.76l49.96-60.9c0.88-1.08,3.98-5.59,9.25-5.32c0.81,0.04,1.64,0.14,2.44,0.42l22.95,8.11l0-4.18
		c0-1.94,0.77-3.8,2.15-5.17c1.37-1.37,3.23-2.14,5.17-2.14c0,0,17.75,0.02,17.75,0.02c2.01,0,3.84,0.82,5.16,2.14
		c9.5-3.63,40.19-12.97,72.08,3.13c6.64,3.35,13.13-4.76,8.32-10.44c-21.53-25.42-62.13-52.5-129.56-26.52
		c0,0,27.19-24.85,66.6-20.42c5.97,0.67,8.56-7.34,3.32-10.25c-14.02-7.8-35.21-14.35-63.54-8.92c-22.98,3.58-42.39,16.6-53.64,30.9
		c0.15-0.48,5.2-15.88,28.71-31.34c4.29-2.82,1.21-9.43-3.69-7.95c-16.05,4.84-37.81,16.59-58.23,44.67c0,0,3.24-13.18,14.14-25.7
		c3.26-3.75-1.03-9.26-5.44-7.01c-19.1,9.75-43.9,29.85-58.17,70.95c0,0-0.36-12.37,5.62-27.58c1.85-4.71-4.17-8.47-7.56-4.71
		c-10.29,11.37-21.73,31.86-23.67,67.41l-0.02-0.05l-0.27-0.97l-0.55-1.95l-0.41-1.99l-0.21-0.99c-0.06-0.34-0.09-0.67-0.14-1.01
		l-0.28-2.02c-0.13-1.39-0.19-2.86-0.29-4.28c-0.28-2.86-0.17-5.76-0.18-8.65c-0.04-1.44,0.11-2.89,0.2-4.34l0.28-4.35l0.54-4.35
		l0.27-2.17l0.14-1.09l0.19-1.08c0.96-5.78,2.15-11.54,3.72-17.23c3.05-11.4,7.13-22.59,11.83-33.54
		c4.71-10.96,10.05-21.68,15.79-32.19l4.39-7.85l4.54-7.77l4.64-7.92c1.53-2.65,3-5.36,4.51-8.03
		c5.92-10.77,11.37-21.93,15.63-33.76c2.08-5.92,3.89-11.99,5.17-18.2c1.26-6.21,2.05-12.5,2.48-18.73c0.25-3.12,0.34-6.21,0.46-9.3
		l0.11-4.63l-0.03-2.52c-0.01-0.84-0.1-1.67-0.15-2.51c-0.26-3.33-0.74-6.61-1.52-9.79l-0.28-1.2l-0.32-1.19
		c-0.22-0.78-0.42-1.58-0.67-2.36c-0.51-1.55-0.98-3.11-1.58-4.62c-4.57-12.18-12.09-23.19-21.87-31.85
		c-9.79-8.63-22.04-14.7-34.97-16.87c-6.45-1.13-13.01-1.38-19.46-0.9c-6.44,0.48-12.88,1.68-19.1,3.75
		c-6.21,2.07-12.19,4.98-17.59,8.74c-5.39,3.76-10.29,8.21-14.43,13.23c-2.12,2.48-4.02,5.12-5.79,7.83
		c-1.78,2.71-3.37,5.52-4.82,8.4c-1.45,2.88-2.74,5.83-3.88,8.86c-0.57,1.5-1.09,3.03-1.58,4.59c-0.2,0.62-0.38,1.26-0.56,1.9
		c-4.67,1.68-9.29,3.39-13.92,5.16c-5.52,2.12-11.02,4.27-16.53,6.62c-1.37,0.59-2.75,1.18-4.14,1.82
		c-0.69,0.31-1.38,0.62-2.08,0.97l-1.05,0.51c-0.36,0.18-0.65,0.31-1.12,0.56c-3.43,1.79-6.38,4.52-8.44,7.9
		c-2.05,3.39-3.12,7.43-2.92,11.41c0.09,2,0.46,3.97,1.11,5.82c0.32,0.93,0.71,1.83,1.15,2.71c0.23,0.44,0.47,0.87,0.74,1.31
		l0.42,0.67c0.18,0.25,0.27,0.41,0.59,0.82h0.01c0.97,1.23,2.48,2.02,4.16,2h0.18c11.73-0.11,23.45-0.38,35.17-0.75
		c6.1-0.18,12.19-0.4,18.29-0.64c0.24,0.43,0.47,0.84,0.71,1.23c0.51,0.84,1.05,1.62,1.58,2.43c1.11,1.56,2.28,3.07,3.53,4.5
		c2.51,2.85,5.24,5.51,8.28,7.8c6.04,4.62,12.94,8.12,20.29,10.05c1.69,0.38,3.34,0.82,5.05,1.04c-3.2,15.74-12.02,32.1-22.09,50.78
		c-13.53,25.11-28.86,53.57-38.13,92.16c-9.17,38.12,0.28,70.11,9.82,90.24c5.28,11.14,11.11,19.91,15.62,25.89H38.09
		c-2.97,0-5.36,2.4-5.36,5.36c0,2.96,2.4,5.36,5.36,5.36h228.58h109.67h97.58c2.96,0,5.36-2.41,5.36-5.36
		C479.28,403.9,476.88,401.5,473.92,401.5z M120.76,401.5h-7.72c-3.45-3.91-12.37-14.81-19.91-30.84
		c-12.65-26.9-15.65-54.75-8.91-82.77c8.95-37.24,23.93-65.05,37.15-89.58c10.84-20.11,20.28-37.65,23.5-55.52
		c0.43-0.02,0.86-0.06,1.29-0.12c0.94-0.13,1.89-0.26,2.82-0.41c0.94-0.14,1.85-0.4,2.77-0.59c3.68-0.86,7.21-2.13,10.54-3.74
		c0.82-0.43,1.65-0.85,2.46-1.29c0.8-0.48,1.61-0.9,2.38-1.42c0.78-0.5,1.55-1,2.3-1.55c0.69-0.51,1.32-1,2.04-1.59
		c0.08-0.06,0.15-0.13,0.23-0.19c0.97-0.81,1.29-2.21,0.69-3.38c-0.7-1.36-2.36-1.9-3.72-1.2l-0.24,0.12c-0.6,0.31-1.37,0.69-2.09,1
		c-0.74,0.34-1.48,0.66-2.23,0.97c-0.75,0.31-1.52,0.57-2.27,0.87l-2.31,0.75c-3.07,0.96-6.21,1.59-9.33,1.95
		c-6.25,0.75-12.45,0.07-18.19-1.85c-0.72-0.19-1.45-0.52-2.18-0.8c-0.73-0.29-1.46-0.56-2.18-0.86l-2.11-1.01l-1.05-0.5l-1.02-0.57
		l-2.04-1.13l-1.96-1.26c-0.66-0.4-1.29-0.87-1.91-1.33c-0.62-0.47-1.29-0.87-1.87-1.38l-1.82-1.46c-0.57-0.51-1.14-1.05-1.73-1.56
		c-1.14-1.06-2.25-2.15-3.3-3.3c-0.35-0.37-0.7-0.75-1.03-1.13c1.2-0.05,2.4-0.1,3.59-0.15c3.04-0.12,6.08-0.27,9.13-0.42
		c2.82-0.14,5.63-0.28,8.45-0.41l8.9-0.44c1.49-0.04,3.01-0.2,4.53-0.34c1.52-0.16,3.03-0.23,4.54-0.48
		c6.05-0.75,12.12-2.08,18.03-4.18c2.94-1.16,5.85-2.38,8.61-4.12c1.39-0.85,2.74-1.8,4.03-2.87c0.32-0.27,0.64-0.57,0.95-0.87
		c0.31-0.28,0.62-0.59,0.92-0.93c0.3-0.31,0.61-0.64,0.9-1.02c0.15-0.19,0.29-0.34,0.44-0.58c0.17-0.23,0.28-0.36,0.52-0.77
		c0.93-1.53,0.44-3.53-1.09-4.46c-1.53-0.93-3.53-0.44-4.46,1.09c0.05-0.11-0.07,0.05-0.13,0.11c-0.05,0.06-0.18,0.17-0.27,0.26
		c-0.17,0.18-0.4,0.37-0.62,0.56c-0.21,0.19-0.45,0.38-0.71,0.55c-0.25,0.18-0.49,0.37-0.75,0.54c-1.04,0.71-2.16,1.35-3.34,1.93
		c-2.33,1.2-4.96,1.99-7.55,2.78c-1.34,0.31-2.65,0.7-4.01,0.97c-1.37,0.24-2.71,0.54-4.09,0.74l-4.15,0.57l-4.21,0.34l-1.05,0.09
		l-1.06,0.03l-2.12,0.09c-1.42,0.05-2.81,0.14-4.26,0.11c-2.87-0.02-5.74-0.05-8.7,0.01c-5.88,0.08-11.75,0.12-17.62,0.25
		c-11.75,0.21-23.5,0.46-35.24,0.83c-4.04,0.12-8.08,0.26-12.12,0.4c-0.63,0.02-1.26,0.05-1.89,0.07
		c-4.22,0.16-8.44,0.33-12.66,0.53c-1.75,0.08-3.51,0.16-5.26,0.25c-0.01-0.03-0.02-0.05-0.04-0.08c0-0.01,0-0.02-0.01-0.03
		c-0.32-0.91-0.49-1.85-0.53-2.79c-0.1-1.89,0.4-3.75,1.38-5.38c0.99-1.63,2.48-3.04,4.25-3.96c0.18-0.11,0.55-0.28,0.85-0.42
		l0.93-0.45c0.61-0.31,1.26-0.6,1.91-0.89c1.27-0.59,2.59-1.16,3.91-1.72c5.28-2.25,10.7-4.38,16.13-6.45
		c5.43-2.08,10.92-4.1,16.38-6.05c1.65-0.6,3-2,3.43-3.83l0.04-0.16l0.21-0.87l0.26-0.98c0.18-0.67,0.38-1.34,0.59-2.01
		c0.42-1.34,0.87-2.68,1.38-4.01c1-2.66,2.14-5.26,3.42-7.8c1.27-2.54,2.67-5.01,4.22-7.37c1.55-2.37,3.2-4.66,5.02-6.8
		c3.57-4.34,7.75-8.1,12.29-11.29c4.57-3.17,9.6-5.62,14.89-7.39c5.29-1.76,10.85-2.8,16.5-3.23c5.64-0.42,11.3-0.2,16.8,0.77
		c0.68,0.11,1.35,0.24,2.03,0.38c0.45,0.09,0.89,0.2,1.34,0.3c0.22,0.05,0.45,0.1,0.67,0.15c0.46,0.11,0.92,0.24,1.38,0.36
		c0.2,0.06,0.41,0.11,0.62,0.16c0.47,0.13,0.93,0.28,1.39,0.42c0.19,0.06,0.39,0.11,0.58,0.18c0.47,0.15,0.95,0.32,1.42,0.48
		c0.18,0.06,0.35,0.12,0.53,0.18c0.5,0.18,0.99,0.37,1.48,0.56c0.15,0.06,0.29,0.11,0.44,0.17c0.53,0.21,1.06,0.44,1.59,0.67
		c0.1,0.04,0.19,0.08,0.29,0.12c0.59,0.26,1.17,0.53,1.76,0.81c0.03,0.01,0.05,0.02,0.08,0.04c0,0,0.01,0,0.02,0
		c0.07,0.03,0.14,0.07,0.21,0.1c0.1,0.05,0.2,0.1,0.3,0.15c0.5,0.25,1,0.5,1.5,0.76c0.18,0.1,0.36,0.2,0.55,0.3
		c0.41,0.22,0.82,0.44,1.22,0.67c0.22,0.13,0.44,0.26,0.66,0.39c0.36,0.21,0.72,0.42,1.08,0.64c0.23,0.14,0.46,0.29,0.7,0.44
		c0.23,0.14,0.45,0.28,0.68,0.42v0.01c0.03,0.02,0.06,0.04,0.08,0.06c0.52,0.34,1.03,0.68,1.53,1.03c0.13,0.09,0.26,0.18,0.39,0.27
		c0.45,0.32,0.89,0.64,1.33,0.97c0.17,0.12,0.33,0.24,0.5,0.37c0.42,0.32,0.83,0.64,1.23,0.97c0.17,0.14,0.34,0.27,0.51,0.41
		c0.57,0.46,1.12,0.94,1.67,1.42c8.38,7.41,14.97,17.03,18.91,27.56c0.52,1.31,0.93,2.65,1.36,3.98c0.21,0.67,0.38,1.35,0.57,2.02
		l0.28,1l0.22,1.02c0.67,2.71,1.06,5.45,1.28,8.17c0.03,0.68,0.11,1.36,0.11,2.04l0.02,2.02l-0.1,4.47
		c-0.11,2.97-0.21,5.94-0.44,8.87c-0.41,5.86-1.14,11.63-2.29,17.31c-1.18,5.68-2.83,11.26-4.77,16.77
		c-3.97,11.02-9.18,21.73-14.94,32.21c-1.46,2.61-2.89,5.23-4.4,7.83l-4.54,7.78l-4.64,7.94l-4.49,8.02
		c-5.89,10.77-11.37,21.79-16.25,33.11c-4.87,11.33-9.13,22.99-12.35,35.02c-1.64,6.01-2.92,12.14-3.95,18.32l-0.21,1.16l-0.15,1.17
		l-0.29,2.34l-0.57,4.68l-0.31,4.74c-0.08,1.58-0.25,3.14-0.21,4.74c0.01,3.17-0.11,6.35,0.19,9.53c0.11,1.59,0.19,3.16,0.34,4.79
		l0.34,2.48c0.06,0.41,0.11,0.83,0.18,1.24l0.25,1.23l0.27,1.27c0,0,0-0.01-0.01-0.01l0.25,1.2l0.68,2.43l0.34,1.21l0.42,1.19
		l0.86,2.38l1.02,2.31c0.17,0.39,0.33,0.78,0.51,1.16l0.59,1.12c0.39,0.74,0.77,1.5,1.19,2.23l1.33,2.16
		c1.85,2.82,3.89,5.53,6.26,7.95l0.87,0.92l0.92,0.87c0.63,0.57,1.23,1.16,1.88,1.72c1.31,1.07,2.61,2.15,4.02,3.1
		c1.36,1.01,2.84,1.84,4.28,2.73c1.51,0.77,2.99,1.61,4.56,2.25c1.54,0.72,3.16,1.26,4.76,1.82c0.8,0.25,1.63,0.48,2.45,0.71
		c0.81,0.25,1.65,0.42,2.48,0.58c0.84,0.16,1.66,0.38,2.51,0.48l2.54,0.34c0.84,0.09,1.7,0.11,2.55,0.18l1.28,0.07l1.28-0.02
		c3.42,0.02,6.84-0.43,10.18-1.16l2.49-0.61l2.44-0.79c0.82-0.25,1.61-0.57,2.4-0.9c0.78-0.33,1.59-0.62,2.34-1
		c1.52-0.77,3.07-1.49,4.49-2.41c0.72-0.45,1.47-0.85,2.16-1.34l2.06-1.46c0.71-0.48,1.34-1.02,1.99-1.55l1.93-1.62
		c1.2-1.16,2.47-2.28,3.59-3.48c2.17-2.29,4.24-4.61,6.28-7c0.79-0.93,1.57-1.88,2.34-2.84c0.1-0.13,0.2-0.25,0.3-0.38
		c0.79-0.99,1.58-2,2.34-3.04c0.3-0.4,0.6-0.81,0.9-1.22c0.17-0.24,0.34-0.48,0.51-0.73c0.01,0.96,0.02,2.06,0.03,3.25
		c0,0.37,0,0.73,0,1.12c-0.01,6.78-0.3,16.62-1.47,27.2c-0.01,0.06-0.01,0.12-0.02,0.17c-0.08,0.73-0.17,1.46-0.26,2.19
		c-0.02,0.14-0.03,0.28-0.05,0.42c-0.08,0.66-0.17,1.32-0.26,1.98c-0.02,0.18-0.05,0.37-0.07,0.55c-0.09,0.62-0.17,1.25-0.27,1.88
		c-0.03,0.2-0.06,0.41-0.09,0.61c-0.09,0.62-0.19,1.23-0.29,1.85c-0.03,0.21-0.07,0.41-0.1,0.62c-0.11,0.64-0.22,1.28-0.33,1.92
		c-0.03,0.17-0.06,0.35-0.09,0.52c-0.13,0.74-0.27,1.48-0.42,2.22c-0.01,0.07-0.03,0.14-0.04,0.21c-0.32,1.63-0.67,3.26-1.05,4.86
		c-0.05,0.2-0.1,0.4-0.15,0.61c-0.14,0.58-0.28,1.16-0.43,1.74c-0.07,0.27-0.14,0.54-0.21,0.81c-0.13,0.51-0.27,1.01-0.41,1.52
		c-0.08,0.29-0.17,0.59-0.25,0.88c-0.14,0.47-0.27,0.94-0.42,1.41c-0.09,0.3-0.19,0.61-0.28,0.91c-0.14,0.45-0.29,0.9-0.43,1.35
		c-0.1,0.3-0.2,0.61-0.31,0.91c-0.15,0.44-0.31,0.88-0.46,1.32c-0.11,0.29-0.21,0.59-0.32,0.88c-0.17,0.45-0.34,0.89-0.51,1.32
		c-0.11,0.27-0.21,0.55-0.32,0.81c-0.19,0.48-0.39,0.94-0.6,1.41c-0.1,0.22-0.19,0.45-0.29,0.67c-0.3,0.68-0.61,1.35-0.93,2.01
		h-20.59H120.76z M428.77,401.5c-4.06-5.65-12.91-14.57-30.81-20.86c0,0,32.1,1.45,45.67,20.86H428.77z"/>
</g>
</svg>
